Coordinates
nRows=207
nColumns=2
inDegrees=yes
endheader
time	ankle_angle_r	
12.5746	 -0.488281	
12.6079	 -0.455683	
12.6411	 -0.547043	
12.6744	 -0.487048	
12.7077	 -0.485621	
12.7409	 -0.518799	
12.7742	 -0.488281	
12.8075	 -0.486661	
12.8407	 -0.518799	
12.874	 -0.473022	
12.9073	 -0.514978	
12.9405	 -0.534058	
12.9738	 -0.490385	
13.0071	 -0.518799	
13.0403	 -0.518799	
13.0736	 -0.498753	
13.1069	 -0.534058	
13.1401	 -0.534058	
13.1734	 -0.513431	
13.2067	 -0.536838	
13.2399	 -0.536935	
13.2732	 -0.500566	
13.3065	 -0.549316	
13.3397	 -0.549316	
13.373	 -0.491545	
13.4062	 -0.561215	
13.4395	 -0.522256	
13.4728	 -0.515245	
13.506	 -0.560925	
13.5393	 -0.572339	
13.5726	 -0.503540	
13.6058	 -0.564575	
13.6391	 -0.538095	
13.6724	 -0.495272	
13.7056	 -0.564575	
13.7389	 -0.544989	
13.7722	 -0.509951	
13.8054	 -0.553837	
13.8387	 -0.564575	
13.872	 -0.508254	
13.9052	 -0.554127	
13.9385	 -0.559668	
13.9718	 -0.513795	
14.005	 -0.544216	
14.0383	 -0.564575	
14.0716	 -0.488281	
14.1048	 -0.529581	
14.1381	 -0.564575	
14.1714	 -0.499450	
14.2046	 -0.537954	
14.2379	 -0.595093	
14.2712	 -0.518799	
14.3044	 -0.549316	
14.3377	 -0.549316	
14.371	 -0.479187	
14.4042	 -0.527796	
14.4375	 -0.546773	
14.4708	 -0.490631	
14.504	 -0.525350	
14.5373	 -0.540706	
14.5706	 -0.503540	
14.6038	 -0.534058	
14.6371	 -0.502157	
14.6704	 -0.487092	
14.7036	 -0.488281	
14.7369	 -0.495509	
14.7702	 -0.473022	
14.8034	 -0.503540	
14.8367	 -0.450023	
14.87	 -0.457764	
14.9032	 -0.503540	
14.9365	 -0.457764	
14.9698	 -0.442505	
15.003	 -0.496283	
15.0363	 -0.450603	
15.0696	 -0.464828	
15.1028	 -0.486957	
15.1361	 -0.411987	
15.1694	 -0.435731	
15.2026	 -0.473022	
15.2359	 -0.427246	
15.2692	 -0.427246	
15.3024	 -0.455279	
15.3357	 -0.408375	
15.369	 -0.427246	
15.4022	 -0.473022	
15.4355	 -0.405987	
15.4687	 -0.406084	
15.502	 -0.451957	
15.5353	 -0.387180	
15.5685	 -0.411987	
15.6018	 -0.452247	
15.6351	 -0.381470	
15.6683	 -0.416599	
15.7016	 -0.437700	
15.7349	 -0.401859	
15.7681	 -0.401762	
15.8014	 -0.437120	
15.8347	 -0.427246	
15.8679	 -0.402500	
15.9012	 -0.447152	
15.9345	 -0.421088	
15.9677	 -0.401182	
16.001	 -0.451218	
16.0343	 -0.457764	
16.0675	 -0.431409	
16.1008	 -0.499473	
16.1341	 -0.484311	
16.1673	 -0.461637	
16.2006	 -0.507317	
16.2339	 -0.465124	
16.2671	 -0.434413	
16.3004	 -0.518799	
16.3337	 -0.481502	
16.3669	 -0.484988	
16.4002	 -0.506737	
16.4335	 -0.488281	
16.4667	 -0.479029	
16.5	 -0.528245	
16.5333	 -0.488281	
16.5665	 -0.500827	
16.5998	 -0.521415	
16.6331	 -0.483242	
16.6663	 -0.480291	
16.6996	 -0.495260	
16.7329	 -0.470793	
16.7661	 -0.503540	
16.7994	 -0.534058	
16.8327	 -0.488281	
16.8659	 -0.505383	
16.8992	 -0.535804	
16.9325	 -0.474672	
16.9657	 -0.505093	
16.999	 -0.535514	
17.0323	 -0.477101	
17.0655	 -0.521324	
17.0988	 -0.519965	
17.1321	 -0.473022	
17.1653	 -0.521717	
17.1986	 -0.519675	
17.2319	 -0.503540	
17.2651	 -0.534058	
17.2984	 -0.533472	
17.3317	 -0.503540	
17.3649	 -0.548924	
17.3982	 -0.503836	
17.4315	 -0.473421	
17.4647	 -0.549111	
17.498	 -0.518805	
17.5312	 -0.503540	
17.5645	 -0.533870	
17.5978	 -0.518799	
17.631	 -0.487900	
17.6643	 -0.518799	
17.6976	 -0.518799	
17.7308	 -0.474364	
17.7641	 -0.518799	
17.7974	 -0.517070	
17.8306	 -0.457764	
17.8639	 -0.503540	
17.8972	 -0.518799	
17.9304	 -0.470520	
17.9637	 -0.504888	
17.997	 -0.502096	
18.0302	 -0.428787	
18.0635	 -0.489919	
18.0968	 -0.515330	
18.13	 -0.457764	
18.1633	 -0.530202	
18.1966	 -0.490306	
18.2298	 -0.444626	
18.2631	 -0.505758	
18.2964	 -0.518799	
18.3296	 -0.460175	
18.3629	 -0.506048	
18.3962	 -0.521403	
18.4294	 -0.445206	
18.4627	 -0.488281	
18.496	 -0.509329	
18.5292	 -0.457764	
18.5625	 -0.479199	
18.5958	 -0.500355	
18.629	 -0.457764	
18.6623	 -0.496784	
18.6956	 -0.491756	
18.7288	 -0.457764	
18.7621	 -0.465100	
18.7954	 -0.476787	
18.8286	 -0.484420	
18.8619	 -0.541400	
18.8952	 -0.485187	
18.9284	 -0.499388	
18.9617	 -0.523047	
18.995	 -0.477367	
19.0282	 -0.494657	
19.0615	 -0.512617	
19.0948	 -0.462399	
19.128	 -0.498808	
19.1613	 -0.497938	
19.1946	 -0.437096	
19.2278	 -0.483066	
19.2611	 -0.513680	
19.2944	 -0.457764	
19.3276	 -0.488281	
19.3609	 -0.513390	
19.3942	 -0.473022	
19.4274	 -0.463366	
